# xmcd
#
# Track frame offsets:
#	150
#	6821
#	19876
#	27719
#	32200
#	41430
#	50396
#	61571
#	74849
#	80157
#	88406
#	94843
#	100920
#	111647
#
# Disc length: 1666 seconds
#
# Revision: 1
# Processed by: cddbd v1.4PL0 Copyright (c) Steve Scherf et al.
# Submitted via: audiograbber 1.81.01
#
DISCID=c506800e
DTITLE=Blue Betty - Betty Blue
DYEAR=1900
DGENRE=Blues
TTITLE0=Prelude
TTITLE1=Georgia
TTITLE2=Wave
TTITLE3=Love
TTITLE4=What a difference a day makes
TTITLE5=I wanna be loved by you
TTITLE6=You are the sunshine of my life
TTITLE7=Make me a memory
TTITLE8=Half a minute
TTITLE9=Chain of fools
TTITLE10=Keep your hands to yourself
TTITLE11=Venus
TTITLE12=Kiss
TTITLE13=Everything I do
EXTD=
EXTT0=
EXTT1=
EXTT2=
EXTT3=
EXTT4=
EXTT5=
EXTT6=
EXTT7=
EXTT8=
EXTT9=
EXTT10=
EXTT11=
EXTT12=
EXTT13=
PLAYORDER=
